<svg width="21" height="15" viewBox="0 0 21 15" fill="none" xmlns="http://www.w3.org/2000/svg">
<path d="M19.9 6.33L13.9 0.330001C13.8074 0.236763 13.6974 0.162673 13.5762 0.111961C13.4549 0.0612493 13.3249 0.0349096 13.1935 0.0344453C12.9282 0.0335077 12.6733 0.138024 12.485 0.325001C12.2967 0.511979 12.1904 0.766102 12.1894 1.03147C12.189 1.16286 12.2144 1.29306 12.2643 1.41463C12.3141 1.5362 12.3874 1.64676 12.48 1.74L16.78 6H1.19C0.924786 6 0.670432 6.10536 0.482896 6.29289C0.295359 6.48043 0.190002 6.73479 0.190002 7C0.190002 7.26522 0.295359 7.51957 0.482896 7.70711C0.670432 7.89464 0.924786 8 1.19 8H16.78L12.48 12.3C12.2938 12.4874 12.1892 12.7408 12.1892 13.005C12.1892 13.2692 12.2938 13.5226 12.48 13.71C12.573 13.8037 12.6836 13.8781 12.8054 13.9289C12.9273 13.9797 13.058 14.0058 13.19 14.0058C13.322 14.0058 13.4527 13.9797 13.5746 13.9289C13.6964 13.8781 13.807 13.8037 13.9 13.71L19.9 7.71C20.0773 7.52402 20.1762 7.27694 20.1762 7.02C20.1762 6.76306 20.0773 6.51598 19.9 6.33Z" fill="#00693C"/>
</svg>
