<svg width="48" height="48" viewBox="0 0 48 48" fill="none" xmlns="http://www.w3.org/2000/svg">
<path d="M24 48C37.2548 48 48 37.2548 48 24C48 10.7452 37.2548 0 24 0C10.7452 0 0 10.7452 0 24C0 37.2548 10.7452 48 24 48Z" fill="#00693C"/>
<g opacity="0.3">
<path opacity="0.3" d="M38.1916 4.64841C27.5682 7.48463 19.7417 17.1701 19.7417 28.6875C19.7417 36.2498 23.1196 43.019 28.4435 47.5826C39.5744 45.4979 48.0001 35.7358 48.0001 24C48.0001 16.056 44.138 9.01659 38.1916 4.64841Z" fill="#FFFFF4"/>
</g>
<path d="M20.1562 20.0657C19.1017 19.1933 17.578 19.9687 16.7577 19.2656C15.6613 18.3258 15.4123 18.08 14.4111 17.8233C13.497 17.589 12.6694 18.1192 11.789 16.9453C11.1562 16.1015 10.5593 16.1869 9.79558 16.3744C9.03189 16.5619 8.79724 16.3544 7.76945 15.5039C7.08977 14.9414 6.46867 14.7422 5.06242 14.789C3.87639 14.8286 2.94358 14.5657 2.07658 14.2365C1.24286 16.1057 0.638455 18.0988 0.305267 20.1838C3.70183 20.5403 4.72277 20.3853 6.0468 20.8125C7.49992 21.2812 21.625 24.1406 21.875 24C22.125 23.8593 22.2909 21.6277 22.2909 21.6277C20.8723 21.3714 20.853 20.6421 20.1562 20.0657Z" fill="#36B294"/>
<g opacity="0.4">
<path opacity="0.4" d="M33.625 28.6875C33.625 33.9856 37.3716 38.4066 42.3593 39.4514C45.8769 35.276 48 29.8871 48 24C48 21.9337 47.7385 19.9285 47.2475 18.0153C46.4056 17.809 45.5305 17.6876 44.625 17.6876C38.5499 17.6876 33.625 22.6123 33.625 28.6875Z" fill="#FFFFF4"/>
</g>
<path d="M39.6098 25.9704C39.348 25.9704 39.136 25.7584 39.136 25.4969V20.3971C39.136 20.1356 39.348 19.9236 39.6098 19.9236C39.8716 19.9236 40.0836 20.1356 40.0836 20.3971V25.4969C40.0836 25.7585 39.8716 25.9704 39.6098 25.9704Z" fill="#00693C"/>
<path d="M42.5941 19.9626C42.5941 21.6109 41.258 22.947 39.6097 22.947C37.9615 22.947 36.6254 21.6109 36.6254 19.9626C36.6254 18.3144 37.9615 13.2478 39.6097 13.2478C41.258 13.2479 42.5941 18.3144 42.5941 19.9626Z" fill="#43AB5F"/>
<path d="M39.6097 13.2478C39.196 13.2478 38.802 13.5676 38.4438 14.072H38.4439C39.9524 14.072 41.1753 18.7092 41.1753 20.2177C41.1753 21.53 40.2492 22.624 39.0155 22.8871C39.2076 22.9259 39.4061 22.947 39.6096 22.947C41.2579 22.947 42.594 21.6109 42.594 19.9626C42.5941 18.3144 41.2579 13.2478 39.6097 13.2478Z" fill="#00693C"/>
<g opacity="0.6">
<path opacity="0.6" d="M15.6231 13.2772C15.6231 12.2858 16.4268 11.482 17.4183 11.482C17.5679 11.482 17.711 11.5056 17.8499 11.5401C18.3184 11.0342 18.9825 10.7126 19.7263 10.7126C21.1427 10.7126 22.2908 11.8607 22.2908 13.2771H15.6231V13.2772Z" fill="white"/>
</g>
<g opacity="0.6">
<path opacity="0.6" d="M15.4027 6.09373C15.4027 5.20854 16.1203 4.49098 17.0055 4.49098C17.1391 4.49098 17.2669 4.51208 17.3909 4.54292C17.8091 4.09123 18.4021 3.80408 19.0662 3.80408C20.3307 3.80408 21.3559 4.82923 21.3559 6.09373H15.4027Z" fill="white"/>
</g>
<g opacity="0.6">
<path opacity="0.6" d="M37.5 7.93263C37.5 7.22172 36.9236 6.64535 36.2127 6.64535C36.1054 6.64535 36.0028 6.66232 35.9032 6.68707C35.5673 6.32435 35.091 6.09363 34.5577 6.09363C33.5421 6.09372 32.7188 6.91703 32.7188 7.93263H37.5Z" fill="white"/>
</g>
<path d="M24.7386 23.25C24.1076 23.25 24.0024 22.6261 23.9406 22.5C23.25 21.0938 22.414 21.75 21.0425 21.75C19.9702 21.75 19.751 20.1875 19.1525 20.25C18.554 20.3125 17.5898 21.3125 16.7585 21C15.5656 20.5515 15.5282 19.875 14.3644 19.5C13.3374 19.1691 12.4691 19.4062 11.9703 18.75C10.9991 17.4722 10.2995 18.8672 8.77819 18C7.23103 17.118 6.74991 18.75 5.58619 18.75C4.36359 18.75 4.78809 17.25 3.19209 17.25C2.28797 17.25 1.75509 18.3525 0.611531 18.6642C0.215906 20.381 0 22.1651 0 24C0 24.9461 0.0616875 25.8775 0.169687 26.795C0.536719 27.1356 0.933563 27.4351 1.33153 27.606C2.75831 28.2187 32.7188 28.7452 32.7188 28.7452V26.25C30.5242 26.25 30.5242 24.75 28.7287 24.75C26.3096 24.75 26.5341 23.25 24.7386 23.25Z" fill="#00A07D"/>
<path d="M10.0312 40.6451L32.25 28.745L31.6875 27.5312C26.3077 27.5312 16.9719 22.0624 0 23.9999C0 29.978 2.19075 35.4411 5.80669 39.6426C8.07788 40.1852 10.0312 40.6451 10.0312 40.6451Z" fill="#94D75B"/>
<path d="M31.6876 27.5313C26.7541 27.5313 18.4893 22.9367 4.06477 23.6676C16.8893 23.6786 24.754 29.4194 28.7813 29.4194L29.9063 28.9998L31.721 27.6037L31.6876 27.5313Z" fill="#00693C"/>
<path d="M16.8994 11.2196C16.6835 11.2196 16.4795 11.262 16.284 11.3237C15.6646 10.4333 14.637 9.84781 13.4702 9.84781C12.3033 9.84781 11.2758 10.4333 10.6563 11.3237C10.4608 11.262 10.2568 11.2196 10.0409 11.2196C8.90453 11.2196 7.98325 12.1407 7.98325 13.2772H18.9571C18.957 12.1408 18.0358 11.2196 16.8994 11.2196Z" fill="white"/>
<path d="M33 9.31247C32.7639 9.31247 32.5408 9.35897 32.327 9.42638C31.6496 8.45269 30.526 7.81247 29.25 7.81247C27.974 7.81247 26.8504 8.45269 26.173 9.42638C25.9592 9.35897 25.7361 9.31247 25.5 9.31247C24.2573 9.31247 23.25 10.3198 23.25 11.5625H35.25C35.25 10.3198 34.2427 9.31247 33 9.31247Z" fill="white"/>
<path d="M17.316 7.81247C17.316 6.48356 18.3933 5.40619 19.7223 5.40619C19.9228 5.40619 20.1147 5.43788 20.3009 5.48419C20.9288 4.8061 21.819 4.37494 22.8161 4.37494C24.7145 4.37494 26.2536 5.91394 26.2536 7.81247H17.316Z" fill="white"/>
<path d="M2.12504 33.8704C5.88966 42.2002 14.2648 48 24 48C37.2549 48 48 37.2548 48 24C48 23.7495 47.9888 23.5018 47.9812 23.2532C33.1399 23.3212 26.4099 33.75 2.12504 33.75V33.8704Z" fill="#00693C"/>
<path d="M32.7191 28.9997C32.422 28.9997 32.1813 28.7591 32.1813 28.4624V22.6752C32.1813 22.3785 32.4219 22.1379 32.7191 22.1379C33.0162 22.1379 33.2567 22.3785 33.2567 22.6752V28.4624C33.2567 28.7591 33.0162 28.9997 32.7191 28.9997Z" fill="#00693C"/>
<path d="M36.1053 22.1823C36.1053 24.0526 34.5891 25.5688 32.7188 25.5688C30.8485 25.5688 29.3323 24.0526 29.3323 22.1823C29.3323 20.3119 30.8485 14.5624 32.7188 14.5624C34.5891 14.5624 36.1053 20.3119 36.1053 22.1823Z" fill="#43AB5F"/>
<path d="M32.7188 14.5624C32.2493 14.5624 31.8022 14.9253 31.3957 15.4977H31.3958C33.1077 15.4977 34.4953 20.7599 34.4953 22.4718C34.4953 23.9608 33.4445 25.2023 32.0444 25.5009C32.2624 25.545 32.4878 25.5689 32.7187 25.5689C34.589 25.5689 36.1053 24.0527 36.1053 22.1824C36.1054 20.3119 34.5891 14.5624 32.7188 14.5624Z" fill="#00693C"/>
<path d="M47.9432 25.5713C37.3951 25.623 22.2733 40.2177 7.51276 41.4133C11.8121 45.4887 17.6077 48 24 48C36.7264 48 47.1331 38.0929 47.9432 25.5713Z" fill="#43AB5F"/>
<path d="M18.3319 42.6876C18.6771 42.6876 18.957 42.4077 18.957 42.0625C18.957 41.7173 18.6771 41.4375 18.3319 41.4375C17.9867 41.4375 17.7069 41.7173 17.7069 42.0625C17.7069 42.4077 17.9867 42.6876 18.3319 42.6876Z" fill="#00693C"/>
<path d="M21.25 35.3375C21.5952 35.3375 21.8751 35.0576 21.8751 34.7124C21.8751 34.3672 21.5952 34.0874 21.25 34.0874C20.9048 34.0874 20.625 34.3672 20.625 34.7124C20.625 35.0576 20.9048 35.3375 21.25 35.3375Z" fill="#94D75B"/>
<path d="M38.1625 27.1291C38.5077 27.1291 38.7875 26.8493 38.7875 26.5041C38.7875 26.1589 38.5077 25.8791 38.1625 25.8791C37.8173 25.8791 37.5375 26.1589 37.5375 26.5041C37.5375 26.8493 37.8173 27.1291 38.1625 27.1291Z" fill="#94D75B"/>
<path d="M27.7281 43.6875C28.0733 43.6875 28.3531 43.4076 28.3531 43.0624C28.3531 42.7172 28.0733 42.4374 27.7281 42.4374C27.3829 42.4374 27.103 42.7172 27.103 43.0624C27.103 43.4076 27.3829 43.6875 27.7281 43.6875Z" fill="#00693C"/>
<path d="M31.0961 39.8125C31.4413 39.8125 31.7211 39.5327 31.7211 39.1875C31.7211 38.8423 31.4413 38.5625 31.0961 38.5625C30.7509 38.5625 30.4711 38.8423 30.4711 39.1875C30.4711 39.5327 30.7509 39.8125 31.0961 39.8125Z" fill="#00693C"/>
<path d="M24 40.7015C24.3452 40.7015 24.625 40.4216 24.625 40.0764C24.625 39.7313 24.3452 39.4514 24 39.4514C23.6548 39.4514 23.375 39.7313 23.375 40.0764C23.375 40.4216 23.6548 40.7015 24 40.7015Z" fill="#00693C"/>
<path d="M13.5 43.3125C13.8452 43.3125 14.125 43.0326 14.125 42.6874C14.125 42.3422 13.8452 42.0624 13.5 42.0624C13.1548 42.0624 12.875 42.3422 12.875 42.6874C12.875 43.0326 13.1548 43.3125 13.5 43.3125Z" fill="#00693C"/>
<path d="M14.125 38.0357C14.4702 38.0357 14.7501 37.7558 14.7501 37.4106C14.7501 37.0654 14.4702 36.7856 14.125 36.7856C13.7798 36.7856 13.5 37.0654 13.5 37.4106C13.5 37.7558 13.7798 38.0357 14.125 38.0357Z" fill="#00693C"/>
<path d="M24.625 33C24.9702 33 25.2501 32.7201 25.2501 32.3749C25.2501 32.0297 24.9702 31.7499 24.625 31.7499C24.2798 31.7499 24 32.0297 24 32.3749C24 32.7201 24.2798 33 24.625 33Z" fill="#00693C"/>
<path d="M8.99814 37.7231C9.34333 37.7231 9.62317 37.4433 9.62317 37.0981C9.62317 36.7529 9.34333 36.473 8.99814 36.473C8.65294 36.473 8.37311 36.7529 8.37311 37.0981C8.37311 37.4433 8.65294 37.7231 8.99814 37.7231Z" fill="#94D75B"/>
<path d="M35.4803 37.0982C35.8255 37.0982 36.1053 36.8183 36.1053 36.4731C36.1053 36.1279 35.8255 35.8481 35.4803 35.8481C35.1351 35.8481 34.8553 36.1279 34.8553 36.4731C34.8553 36.8183 35.1351 37.0982 35.4803 37.0982Z" fill="#00693C"/>
<path d="M41.5315 35.3375C41.8767 35.3375 42.1565 35.0576 42.1565 34.7124C42.1565 34.3672 41.8767 34.0874 41.5315 34.0874C41.1863 34.0874 40.9064 34.3672 40.9064 34.7124C40.9064 35.0576 41.1863 35.3375 41.5315 35.3375Z" fill="#00693C"/>
<path d="M29.9572 36.4731C30.3024 36.4731 30.5822 36.1933 30.5822 35.8481C30.5822 35.5029 30.3024 35.2231 29.9572 35.2231C29.612 35.2231 29.3322 35.5029 29.3322 35.8481C29.3322 36.1933 29.612 36.4731 29.9572 36.4731Z" fill="#00693C"/>
<path d="M35.4803 41.2702C35.8255 41.2702 36.1053 40.9903 36.1053 40.6451C36.1053 40.2999 35.8255 40.0201 35.4803 40.0201C35.1351 40.0201 34.8553 40.2999 34.8553 40.6451C34.8553 40.9903 35.1351 41.2702 35.4803 41.2702Z" fill="#00693C"/>
<path d="M37.375 33.625C37.7202 33.625 38.0001 33.3452 38.0001 33C38.0001 32.6548 37.7202 32.375 37.375 32.375C37.0298 32.375 36.75 32.6548 36.75 33C36.75 33.3452 37.0298 33.625 37.375 33.625Z" fill="#00693C"/>
<path d="M41.5315 29.9951C41.8767 29.9951 42.1565 29.7153 42.1565 29.3701C42.1565 29.0249 41.8767 28.7451 41.5315 28.7451C41.1863 28.7451 40.9064 29.0249 40.9064 29.3701C40.9064 29.7153 41.1863 29.9951 41.5315 29.9951Z" fill="#00693C"/>
</svg>
