<svg width="48" height="48" viewBox="0 0 48 48" fill="none" xmlns="http://www.w3.org/2000/svg">
<path d="M32.7928 5.55188L24.4491 8.36438C24.2991 8.415 24.1472 8.43937 24 8.43937V0C24.1472 0 24.2991 0.024375 24.4491 0.075L32.7928 2.8875C34.065 3.31594 34.0659 5.12344 32.7928 5.55188Z" fill="#00693C"/>
<path d="M23.0625 8.79655V33.8437H5.90623C4.7321 33.8437 4.07154 32.4812 4.80842 31.5581C24.0349 7.56223 22.8929 8.94673 23.0625 8.79655V8.79655Z" fill="#00693C"/>
<path d="M25.4062 1.40625V37.125H22.5938V1.40625C22.5938 0.63 23.2238 0 24 0C24.7762 0 25.4062 0.63 25.4062 1.40625Z" fill="#00693C"/>
<path d="M25.4062 1.40625V37.125H24V0C24.7762 0 25.4062 0.63 25.4062 1.40625Z" fill="#00693C"/>
<path d="M43.9119 37.125H23.3478C30.485 28.7681 30.7541 17.1468 25.4187 8.56966C39.6706 9.40591 48.8956 23.955 43.9119 37.125Z" fill="#00693C"/>
<path d="M46.3725 38.6484L43.8056 44.2491C41.6417 42.7357 39.5116 43.0041 37.5159 44.6859C35.9484 46.0078 34.6454 46.0096 33.0768 44.6859C30.8263 42.7893 28.4967 42.7664 26.219 44.6859C24.6507 46.0086 23.349 46.0108 21.78 44.6859C19.5614 42.8162 17.2308 42.7394 14.9231 44.6859C13.3531 46.0083 12.0539 46.0108 10.4831 44.6859C8.48808 43.0046 6.3607 42.7358 4.19526 44.2481L1.62745 38.6484C1.20295 37.7193 1.88105 36.6562 2.9062 36.6562H45.0937C46.1193 36.6562 46.7968 37.7197 46.3725 38.6484V38.6484Z" fill="#00693C"/>
<path d="M46.3725 38.6484C46.2654 38.8822 46.9792 37.3248 43.8056 44.2491C41.6419 42.7359 39.5119 43.0041 37.5159 44.6859C35.9484 46.0078 34.6453 46.0097 33.0769 44.6859C30.8259 42.7894 28.4972 42.7659 26.2191 44.6859C25.4344 45.3478 24.7181 45.6787 24 45.6787V36.6562H45.0938C46.1194 36.6562 46.7972 37.7194 46.3725 38.6484V38.6484Z" fill="#00693C"/>
<path d="M48 46.6875V48H0V46.6875C0 45.9112 0.63 45.2812 1.40625 45.2812C2.30437 45.2812 2.68781 44.9578 3.32344 44.4216C5.76375 42.3638 8.34938 42.3666 10.785 44.4216C12.1781 45.5962 13.2291 45.5953 14.6203 44.4216C17.0606 42.3638 19.6453 42.3666 22.0819 44.4216C23.475 45.5962 24.525 45.5953 25.9172 44.4216C28.3575 42.3638 30.9422 42.3666 33.3788 44.4216C34.7719 45.5962 35.8219 45.5953 37.2141 44.4216C39.6544 42.3638 42.2391 42.3666 44.6756 44.4216C45.3113 44.9578 45.6956 45.2812 46.5938 45.2812C47.37 45.2812 48 45.9112 48 46.6875V46.6875Z" fill="#30C4FF"/>
<path d="M48 46.6875V48H24V45.3019C24.6112 45.3019 25.2206 45.0084 25.9172 44.4216C28.3575 42.3638 30.9422 42.3666 33.3788 44.4216C34.7719 45.5962 35.8219 45.5953 37.2141 44.4216C39.6544 42.3638 42.2391 42.3666 44.6756 44.4216C45.3113 44.9578 45.6956 45.2812 46.5938 45.2812C47.37 45.2812 48 45.9112 48 46.6875V46.6875Z" fill="#1B9CF7"/>
</svg>
