<svg width="48" height="48" viewBox="0 0 48 48" fill="none" xmlns="http://www.w3.org/2000/svg">
<g clip-path="url(#clip0)">
<path d="M48 24C48 37.255 37.255 48 24 48C22.752 48 21.5266 47.9052 20.3306 47.7217C19.244 47.5554 18.1824 47.3152 17.1486 47.0087C8.36975 44.3979 1.69482 36.9001 0.27832 27.6694C0.0977783 26.4902 0.00292969 25.2821 0 24.0527V24C0 10.745 10.745 0 24 0C27.6812 0 31.1697 0.828735 34.2869 2.31006C34.8677 2.58618 35.4368 2.88501 35.9912 3.20618C37.7593 4.22791 39.3856 5.46826 40.8314 6.89062C42.8247 8.85242 44.4763 11.1584 45.6899 13.7142C47.1713 16.8314 48 20.3196 48 24Z" fill="#00693C"/>
<path d="M41.6327 21.1839L41.2449 14.2647L40.8314 6.89064L40.8292 6.86025C40.7208 4.92739 39.178 3.38564 37.2462 3.27687L35.9912 3.2062L34.7117 3.13478L29.8414 2.86049L22.9215 2.47158C22.1144 2.42543 21.3267 2.72609 20.7546 3.29848L0 24.0528C0.00292969 25.2821 0.0977783 26.4903 0.27832 27.6695C1.69482 36.9002 8.36975 44.398 17.1486 47.0087L40.8058 23.3496C41.3778 22.7783 41.6788 21.991 41.6327 21.1839ZM34.949 14.7016C33.4178 16.2327 30.9346 16.2338 29.4034 14.7027C27.8712 13.1697 27.8723 10.6864 29.4034 9.15529C30.9346 7.62416 33.4178 7.62307 34.9508 9.15529C36.4819 10.6864 36.4808 13.1697 34.949 14.7016Z" fill="#00693C"/>
<path d="M45.6899 13.7142L45.2747 6.30945C45.1659 4.37696 43.6231 2.83484 41.6913 2.72608L39.1571 2.58399L34.2869 2.31006L27.3666 1.92078C26.5595 1.87537 25.7717 2.17603 25.2001 2.74768L0.27832 27.6694C1.86108 37.9867 10.0133 46.1389 20.3306 47.7217L45.2516 22.7996C45.8229 22.2283 46.1235 21.4406 46.0785 20.6338L45.6899 13.7142ZM39.3944 14.1511C37.8633 15.6823 35.38 15.6834 33.8489 14.1522C32.3167 12.6193 32.3178 10.136 33.8489 8.60486C35.38 7.07373 37.8633 7.07264 39.3962 8.60486C40.9274 10.136 40.9263 12.6193 39.3944 14.1511Z" fill="#FF666B"/>
<path d="M5.61836 35.0532C5.30012 34.735 5.4792 34.2377 5.81721 33.8997L9.26839 30.4485C9.59688 30.12 10.0839 30.3291 10.4022 30.6474C10.7702 31.0154 10.9196 31.5025 10.6212 31.8009L8.04524 34.3769L9.72615 36.0578L11.228 34.5559C11.5264 34.2578 11.9838 34.3769 12.3021 34.6955C12.5705 34.9635 12.7496 35.4213 12.4215 35.7494L10.9196 37.2512L13.4857 39.8173C13.8039 40.1355 13.5754 40.6826 13.1876 41.0705C12.7994 41.4583 12.2523 41.6872 11.9344 41.3689L5.61836 35.0532Z" fill="white"/>
<path d="M11.3276 29.3243C11.079 29.0756 11.0489 28.668 11.3375 28.3795L13.3963 26.3206C14.759 24.958 16.3502 24.3812 17.9714 26.0024C19.0854 27.1164 19.2147 28.2601 18.787 29.225L22.1986 30.2098C22.2978 30.2296 22.3773 30.2892 22.4271 30.3391C22.8153 30.7269 22.7157 31.6614 22.2579 32.1192C22.0591 32.3181 21.7906 32.4276 21.4724 32.3279L17.4642 31.0451L16.8076 31.7014L19.2048 34.0986C19.523 34.4168 19.2942 34.9639 18.9063 35.3517C18.5185 35.7396 17.9714 35.9681 17.6532 35.6502L11.3276 29.3243ZM13.7644 28.6581L15.6141 30.5079L16.5989 29.5235C17.1559 28.9665 17.2654 28.3996 16.5692 27.7034C15.8727 27.0073 15.3058 27.1164 14.7491 27.6734L13.7644 28.6581Z" fill="white"/>
<path d="M21.8503 23.9337L23.3422 22.4421C23.6407 22.1436 24.0981 22.263 24.4163 22.5812C24.6847 22.8497 24.8638 23.3071 24.5357 23.6352L23.0437 25.1271L24.7345 26.8179L27.4002 24.1523C27.6987 23.8542 28.1861 24.0032 28.5541 24.3713C28.8724 24.6895 29.0811 25.177 28.753 25.5051L25.2121 29.046C24.8741 29.384 24.3768 29.5631 24.0585 29.2448L17.7428 22.9291C17.4242 22.6109 17.6033 22.1136 17.9417 21.7752L21.4822 18.2347C21.8107 17.9066 22.2978 18.1153 22.616 18.4335C22.9841 18.8016 23.1335 19.289 22.835 19.5875L20.1694 22.2528L21.8503 23.9337Z" fill="white"/>
<path d="M27.8079 17.9761L29.2998 16.4846C29.5983 16.1861 30.0557 16.3055 30.3739 16.6237C30.6423 16.8922 30.8214 17.3496 30.4933 17.6777L29.0013 19.1696L30.6921 20.8604L33.3578 18.1951C33.6563 17.8967 34.1437 18.0457 34.5114 18.4138C34.83 18.732 35.0387 19.2194 34.7106 19.5476L31.1697 23.0884C30.8313 23.4265 30.3344 23.6055 30.0161 23.2873L23.7004 16.9716C23.3822 16.6534 23.5609 16.1561 23.8989 15.8181L27.4398 12.2772C27.7683 11.949 28.2554 12.1578 28.5736 12.476C28.9416 12.8441 29.0911 13.3315 28.7926 13.63L26.127 16.2952L27.8079 17.9761Z" fill="white"/>
</g>
<defs>
<clipPath id="clip0">
<rect width="48" height="48" fill="white"/>
</clipPath>
</defs>
</svg>
