<svg width="48" height="48" viewBox="0 0 48 48" fill="none" xmlns="http://www.w3.org/2000/svg">
<g clip-path="url(#clip0)">
<path d="M6.53835 17.3109H8.3519V23.9055H6.53835C5.71894 23.9055 5.05458 23.2411 5.05458 22.4218V18.7948C5.05449 17.9753 5.71894 17.3109 6.53835 17.3109Z" fill="#CF4737"/>
<path d="M22.3654 9.89198H19.0681C17.2471 9.89198 15.7708 11.3683 15.7708 13.1893V28.0272H25.6627V13.1893C25.6627 11.3683 24.1863 9.89198 22.3654 9.89198Z" fill="#00693C"/>
<path d="M24.8384 1.64868L18.3476 2.47296C18.2783 2.74248 18.2437 3.01949 18.2437 3.29725V6.59456C18.2437 8.41552 19.7201 9.89188 21.541 9.89188C23.362 9.89188 24.8384 8.41552 24.8384 6.59456V3.29734C24.8721 2.74829 24.8721 2.19764 24.8384 1.64868Z" fill="#FEC9A3"/>
<path d="M18.2437 2.47294V5.77026L21.541 2.47294H24.0139C25.3799 2.47294 26.4869 1.36584 26.4869 0H20.7166C19.3508 0 18.2437 1.10711 18.2437 2.47294Z" fill="#75462E"/>
<path d="M25.6626 28.0271H15.7706V36.2704L8.35172 39.5677L10.0004 42.865L17.8628 39.5891C19.0919 39.0772 19.8923 37.8762 19.8923 36.5449V32.8849C19.8923 32.0235 20.5905 31.3245 21.4528 31.3245C22.0166 31.3245 22.5367 31.6287 22.8129 32.12L29.7842 44.5138L33.0815 42.8651L25.6626 28.0271Z" fill="#75462E"/>
<path d="M7.89591 46.8992L5.05447 41.2163L8.35178 39.5677L11.2806 45.4253C11.5122 45.8894 11.5122 46.4351 11.2806 46.8992C11.0012 47.4581 10.4299 47.811 9.80583 47.811H9.37058C8.74579 47.811 8.17461 47.4581 7.89591 46.8992Z" fill="#00693C"/>
<path d="M36.3789 45.3379L31.4329 47.8109L29.7843 44.5136L34.7303 42.0406C35.6412 41.5856 36.7482 41.9541 37.2032 42.8649C37.6583 43.7758 37.289 44.8829 36.3789 45.3379Z" fill="#00693C"/>
<path d="M36.9657 15.0711C36.2897 14.1702 35.0104 13.9872 34.1095 14.6631C34.0319 14.7208 33.9595 14.7843 33.891 14.8526L29.7842 18.9594L25.6626 14.0134V20.6081L26.0229 21.148C27.3534 23.142 30.0481 23.6812 32.043 22.3508C32.2812 22.1917 32.503 22.0103 32.7049 21.8075L36.7763 17.7362C37.4933 17.0182 37.5741 15.8831 36.9657 15.0711Z" fill="#FEC9A3"/>
<path d="M18.6154 9.06755H12.4734V10.7162H18.6154C19.8074 10.7171 20.7727 11.684 20.7719 12.876C20.7719 13.2015 20.6977 13.5231 20.5559 13.8157L15.375 24.4826L13.2977 24.7299V26.3785L15.647 26.0397C16.1885 25.9615 16.6551 25.6201 16.8942 25.128L22.0356 14.537C22.9539 12.646 22.165 10.3683 20.2739 9.45002C19.7571 9.1986 19.19 9.06839 18.6154 9.06755Z" fill="#75462E"/>
<path d="M8.35172 24.7298C8.35172 26.0957 9.45883 27.2027 10.8247 27.2027H13.2976C14.6635 27.2027 15.7705 26.0956 15.7705 24.7298V23.9055H8.35172C8.35172 23.9055 8.35172 24.7298 8.35172 24.7298Z" fill="#75462E"/>
<path d="M15.6306 11.5406C15.2811 10.5523 14.3463 9.89112 13.2977 9.89197H10.8248C9.45885 9.89197 8.35184 10.9991 8.35184 12.3649V23.9055H15.7708V12.3649L15.6306 11.5406Z" fill="#DE4C3C"/>
<path d="M41.3403 48.0001L42.946 47.6267L34.7029 12.1793L33.0971 12.5527L41.3403 48.0001Z" fill="#75462E"/>
<path d="M12.0612 2.47293C10.0128 2.47293 8.35172 4.13396 8.35172 6.18244C8.35172 8.23091 10.0128 9.89194 12.0612 9.89194C14.1097 9.89194 15.7707 8.23091 15.7707 6.18244C15.7707 4.13396 14.1097 2.47293 12.0612 2.47293ZM12.0612 7.41891C11.3787 7.41891 10.8248 6.86498 10.8248 6.18244C10.8248 5.49989 11.3787 4.94597 12.0612 4.94597C12.7438 4.94597 13.2977 5.49989 13.2977 6.18244C13.2977 6.86498 12.7438 7.41891 12.0612 7.41891Z" fill="#00693C"/>
<path d="M21.376 13.6615L16.5949 16.5764L22.2004 20.6082C23.1467 21.2412 23.4006 22.5206 22.7675 23.467C22.7478 23.4967 22.7271 23.5255 22.7057 23.5543C22.0495 24.4273 20.8271 24.6367 19.9178 24.0324L13.0173 19.1401C12.1616 18.568 11.6481 17.606 11.649 16.5764C11.649 15.5468 12.1633 14.5848 13.0206 14.0135L19.0967 10.2373C20.006 9.63303 21.2285 9.84245 21.8847 10.7154C22.5648 11.6279 22.3768 12.9188 21.4642 13.5997C21.4354 13.6211 21.4057 13.6418 21.376 13.6615Z" fill="#FEC9A3"/>
</g>
<defs>
<clipPath id="clip0">
<rect width="48" height="48" fill="white"/>
</clipPath>
</defs>
</svg>
