<svg width="247" height="34" viewBox="0 0 247 34" fill="none" xmlns="http://www.w3.org/2000/svg">
<path d="M39.2938 4.75088C39.2938 5.97663 38.8017 7.00095 37.8176 7.83625C36.876 8.63512 35.7885 9.03138 34.5556 9.03138C33.1646 9.03138 32.0103 8.57413 31.0811 7.65964C30.1577 6.74488 29.7448 5.59251 29.8542 4.20229C29.4715 4.15345 28.9066 4.30604 28.1413 4.64739C26.4586 5.40956 25.4261 8.23885 25.0431 13.1292C24.6544 17.9646 21.848 21.2818 16.63 23.0804H37.7269C37.2166 24.9828 35.625 25.934 32.9584 25.934H0.295898C1.33475 23.0559 2.6103 21.6168 4.12886 21.6168C4.80924 21.6168 5.98775 21.8789 7.66437 22.4035C9.34705 22.9281 10.5558 23.1902 11.2969 23.1902C13.423 23.1902 15.1543 21.3243 16.5027 17.5926L18.5318 9.36085C20.6092 3.38521 25.7969 0.397522 34.0885 0.397522C35.4795 0.397522 36.6701 0.763424 37.6603 1.5013C38.7476 2.32446 39.2943 3.40369 39.2943 4.75141L39.2938 4.75088ZM60.7549 23.0801C60.1839 24.9825 58.7321 25.9337 56.3935 25.9337H49.6447C47.719 25.9337 46.7593 25.3178 46.7593 24.0799C45.4654 25.5617 43.88 26.2994 41.9969 26.2994C40.6059 26.2994 39.4821 25.8725 38.6195 25.0126C37.7508 24.1528 37.3195 23.031 37.3195 21.653C37.3195 19.1592 38.2489 17.1956 40.1015 15.7507C41.7781 14.4397 43.8616 13.7873 46.3398 13.7873H56.2657L53.3438 23.0801H60.7546H60.7549ZM49.0251 16.6412H45.3378L44.0986 20.8058C44.0257 21.0679 43.9891 21.3058 43.9891 21.5191C43.9891 22.5556 45.0035 23.0741 47.0265 23.0741L49.0251 16.6412ZM85.0953 23.0801C84.7915 24.129 84.1051 24.8973 83.0481 25.3973C82.2948 25.7571 81.493 25.934 80.6366 25.934H73.5235C71.8956 25.934 71.0816 25.3973 71.0816 24.3241C71.0816 23.9703 71.1665 23.5498 71.3306 23.0741L72.5212 19.2387L66.4833 24.4337C65.0681 25.4337 63.9077 25.9337 62.9904 25.9337H59.7647L63.5369 13.7873H69.8847L67.9955 19.8728L73.4686 15.1472C74.9506 13.8726 76.5604 13.263 78.2978 13.3119C79.47 13.3607 80.0533 13.9581 80.0533 15.1047C80.0533 15.5316 79.956 16.007 79.7679 16.5377L77.7389 23.0804H85.095L85.0953 23.0801ZM108.682 23.0801C108.087 24.9825 106.635 25.9337 104.321 25.9337H97.536C95.58 25.9337 94.614 25.3178 94.6506 24.0799C93.3445 25.6106 91.595 26.3727 89.3961 26.3727C87.9625 26.3727 86.7963 25.9704 85.9095 25.1594C84.9801 24.3241 84.5185 23.196 84.5185 21.7691C84.5185 19.1838 85.5329 17.1594 87.5677 15.6961C89.3538 14.4215 91.5587 13.7873 94.1646 13.7873H97.7666L100.731 4.34828H107.127L101.278 23.0801H108.682ZM96.904 16.6412H92.6457L91.2913 20.4826C91.1758 20.8425 91.1151 21.1656 91.1151 21.4521C91.1151 22.2448 91.6192 22.7509 92.6336 22.9703C92.9921 23.0374 93.7514 23.0741 94.9178 23.0741L96.904 16.6412V16.6412ZM139.328 9.98257C139.328 14.3911 137.603 18.2265 134.147 21.4887C130.8 24.6472 127.034 26.2265 122.86 26.2265C119.781 26.2265 117.357 25.3912 115.577 23.7264C113.797 22.0556 112.904 19.7691 112.904 16.8606C112.904 15.3605 113.256 13.7506 113.955 12.0373C114.623 10.4031 115.504 8.92736 116.597 7.60446H124.44C123.091 8.79351 121.979 10.3178 121.098 12.1775C120.206 14.0862 119.756 15.9152 119.756 17.6652C119.756 19.1104 120.054 20.3298 120.649 21.3298C121.36 22.5189 122.386 23.1163 123.729 23.1163C125.958 23.1163 127.975 21.6712 129.779 18.7748C131.382 16.1773 132.184 13.6833 132.184 11.3052C132.184 9.4089 131.637 7.93314 130.544 6.87819C129.457 5.82325 127.95 5.29894 126.025 5.29894H108.457L111.179 0.798801H127.562C130.884 0.798801 133.581 1.4757 135.659 2.83556C138.107 4.44517 139.328 6.82936 139.328 9.98178L139.328 9.98257ZM167.763 13.7876C167.38 15.69 165.849 16.6412 163.171 16.6412H151.326C152.419 17.6534 152.917 19.4338 152.82 21.9888C152.704 25.001 151.101 27.6901 148.021 30.0497C145.245 32.1839 142.584 33.2143 140.033 33.1412C139.547 33.129 139.116 32.94 138.739 32.568C138.357 32.2021 138.168 31.757 138.168 31.2449C138.168 31.0437 138.211 30.8365 138.29 30.6229L142.791 17.8485C142.184 17.6837 141.667 17.3606 141.254 16.8849C140.774 16.3545 140.538 15.7568 140.538 15.0741C140.538 14.6593 140.635 14.2264 140.823 13.7873H144.176L147.499 4.38498H153.914L149.983 13.7873H167.764L167.763 13.7876ZM147.584 24.751C147.893 23.8362 148.045 23.0376 148.045 22.3486C148.045 21.3731 147.729 20.6413 147.098 20.1534C146.126 22.4399 144.607 25.8669 142.542 30.4341C143.502 29.9341 144.51 29.0803 145.567 27.867C146.606 26.6961 147.274 25.6597 147.584 24.7513V24.751ZM194.594 0.799593L191.63 5.29974H184.808L182.19 13.7876H188.325C188.155 15.6657 186.97 16.6169 184.784 16.6412L181.291 16.6779L180.064 20.5864C178.837 24.1533 176.407 25.934 172.781 25.934H160.407C160.929 24.6047 161.385 23.6535 161.78 23.0986C162.466 22.1107 163.274 21.6168 164.198 21.6168C164.337 21.6168 164.489 21.6289 164.641 21.6535L172.957 22.9706L178.436 5.29974H168.68C167.217 5.29974 165.892 5.74484 164.726 6.64112C163.45 7.61687 162.812 8.84236 162.812 10.3181C162.812 11.3424 163.019 11.928 163.432 12.0682C163.657 10.9647 164.24 10.0742 165.175 9.40969C166.056 8.76949 167.064 8.44609 168.206 8.44609C169.44 8.44609 170.509 8.83021 171.414 9.59264C172.386 10.4037 172.872 11.4523 172.872 12.739C172.872 14.1659 172.307 15.2816 171.177 16.0804C170.211 16.7695 169.008 17.1172 167.568 17.1172C165.345 17.1172 163.498 16.5805 162.023 15.5073C160.388 14.3061 159.568 12.6474 159.568 10.5378C159.568 7.38534 160.814 4.91588 163.304 3.14127C165.503 1.58024 168.231 0.799858 171.493 0.799858H194.594V0.799593ZM201.294 6.45817C201.294 7.6533 200.832 8.66548 199.915 9.50104C198.992 10.3363 197.886 10.7511 196.593 10.7511C195.274 10.7511 194.157 10.3366 193.234 9.50104C192.316 8.66548 191.855 7.65356 191.855 6.45817C191.855 5.28152 192.316 4.27515 193.234 3.43986C194.157 2.6043 195.275 2.18982 196.593 2.18982C197.887 2.18982 198.992 2.6043 199.915 3.43986C200.832 4.27515 201.294 5.28126 201.294 6.45817ZM203.044 23.0801C202.734 24.129 202.096 24.8973 201.124 25.3973C200.426 25.7571 199.666 25.934 198.846 25.934H191.83C190.135 25.934 189.285 25.2207 189.285 23.7877C189.285 23.3853 189.37 22.9521 189.534 22.4888L192.237 13.7876H198.621L195.736 23.0804H203.044V23.0801ZM223.891 23.0801C223.891 23.9094 223.436 24.6166 222.519 25.184C221.711 25.684 220.866 25.934 219.986 25.934H213.164C211.354 25.934 210.455 25.184 210.455 23.6839C210.455 23.2998 210.534 22.8914 210.686 22.4523L212.49 16.6414H208.857L206.215 21.7757C205.942 22.6477 205.346 23.0807 204.423 23.0807H202.856L205.176 16.6417C204.459 16.477 203.87 16.105 203.427 15.5258C202.977 14.9526 202.752 14.2879 202.752 13.5379C202.752 12.1719 203.384 11.1109 204.641 10.3611C205.686 9.74523 206.938 9.43424 208.383 9.43424H211.244L209.768 13.7879H219.281L216.395 23.0807H223.891V23.0801ZM246.264 23.0801C246.015 23.9949 245.444 24.7143 244.557 25.2386C243.761 25.7022 242.85 25.9337 241.83 25.9337H231.916C226.151 25.9337 223.266 24.1897 223.266 20.702C223.266 18.4644 224.25 16.7019 226.218 15.4336C227.913 14.3362 229.93 13.7873 232.268 13.7873H234.85C236.35 13.7873 237.674 14.0191 238.816 14.4825C240.335 15.1044 241.125 16.0435 241.198 17.3057C241.258 18.5803 240.651 19.6349 239.375 20.4824H233.507L235.402 16.6409H231.648L230.203 20.952C230.124 21.202 230.081 21.4278 230.081 21.6289C230.081 22.5983 230.852 23.0801 232.396 23.0801H246.264H246.264Z" fill="white"/>
</svg>
